<?xml version="1.0" encoding="utf-8"?>
<!-- Generator: Adobe Illustrator 16.0.0, SVG Export Plug-In . SVG Version: 6.00 Build 0)  -->
<!DOCTYPE svg PUBLIC "-//W3C//DTD SVG 1.1//EN" "http://www.w3.org/Graphics/SVG/1.1/DTD/svg11.dtd">
<svg version="1.1" id="Layer_1" xmlns="http://www.w3.org/2000/svg" xmlns:xlink="http://www.w3.org/1999/xlink" x="0px" y="0px"
	 width="841.89px" height="595.28px" viewBox="0 0 841.89 595.28" enable-background="new 0 0 841.89 595.28" xml:space="preserve">
<path fill="#002856" d="M330.632,227.178c2.091-2.421,4.406-4.421,6.892-6.084H236.732v24.68h47.714v81.028h24.68v-81.028h12.579
	C322.979,238.835,325.953,232.6,330.632,227.178z"/>
<g>
	<path fill="#002856" d="M240.7,346.656h-6.491v-2.343h15.799v2.343h-6.522v18.997H240.7V346.656z"/>
	<path fill="#002856" d="M263.431,355.648h-8.295v7.693h9.245v2.312h-12v-21.34h11.525v2.311h-8.77v6.744h8.295V355.648z"/>
	<path fill="#002856" d="M267.575,362.297c1.235,0.76,3.04,1.394,4.939,1.394c2.818,0,4.464-1.488,4.464-3.642
		c0-1.994-1.14-3.134-4.021-4.242c-3.482-1.235-5.636-3.04-5.636-6.048c0-3.324,2.755-5.794,6.902-5.794
		c2.185,0,3.768,0.507,4.718,1.045l-0.76,2.248c-0.697-0.38-2.122-1.014-4.053-1.014c-2.913,0-4.021,1.742-4.021,3.198
		c0,1.995,1.298,2.977,4.243,4.116c3.609,1.393,5.446,3.135,5.446,6.269c0,3.293-2.438,6.143-7.472,6.143
		c-2.058,0-4.306-0.602-5.446-1.361L267.575,362.297z"/>
	<path fill="#002856" d="M287.613,346.656h-6.491v-2.343h15.799v2.343h-6.522v18.997h-2.786V346.656z"/>
	<path fill="#00B3E3" d="M303.41,359.605l-1.836,6.048h-4.021l6.839-21.34h4.971l6.934,21.34h-4.179l-1.932-6.048H303.41z
		 M309.521,356.661l-1.678-5.256c-0.412-1.298-0.76-2.755-1.077-3.989h-0.063c-0.317,1.234-0.633,2.723-1.013,3.989l-1.646,5.256
		H309.521z"/>
	<path fill="#00B3E3" d="M322.118,344.313v12.442c0,4.18,1.741,6.111,4.369,6.111c2.818,0,4.496-1.932,4.496-6.111v-12.442h3.895
		v12.189c0,6.586-3.388,9.499-8.517,9.499c-4.939,0-8.137-2.755-8.137-9.467v-12.222H322.118z"/>
	<path fill="#00B3E3" d="M343.422,347.574h-6.079v-3.261h16.116v3.261h-6.142v18.079h-3.895V347.574z"/>
	<path fill="#00B3E3" d="M374.004,354.762c0,7.155-4.337,11.24-10.227,11.24c-6.016,0-9.815-4.592-9.815-10.86
		c0-6.554,4.116-11.177,10.132-11.177C370.332,343.965,374.004,348.683,374.004,354.762z M358.078,355.078
		c0,4.338,2.185,7.789,5.921,7.789c3.768,0,5.889-3.483,5.889-7.947c0-4.021-1.995-7.82-5.889-7.82
		C360.136,347.1,358.078,350.677,358.078,355.078z"/>
	<path fill="#00B3E3" d="M395.372,356.946c-0.126-2.755-0.285-6.079-0.253-8.96h-0.095c-0.697,2.596-1.583,5.478-2.533,8.168
		l-3.103,9.246h-3.008l-2.85-9.119c-0.823-2.723-1.583-5.636-2.153-8.295h-0.063c-0.095,2.786-0.222,6.174-0.38,9.087l-0.475,8.58
		h-3.641l1.425-21.34h5.129l2.786,8.58c0.76,2.501,1.425,5.034,1.963,7.409h0.095c0.57-2.312,1.298-4.939,2.122-7.44l2.944-8.549
		h5.066l1.235,21.34h-3.799L395.372,356.946z"/>
	<path fill="#00B3E3" d="M407.62,359.605l-1.836,6.048h-4.021l6.839-21.34h4.971l6.934,21.34h-4.179l-1.932-6.048H407.62z
		 M413.73,356.661l-1.678-5.256c-0.412-1.298-0.76-2.755-1.077-3.989h-0.063c-0.317,1.234-0.633,2.723-1.013,3.989l-1.646,5.256
		H413.73z"/>
	<path fill="#00B3E3" d="M424.999,347.574h-6.079v-3.261h16.116v3.261h-6.143v18.079h-3.895V347.574z"/>
	<path fill="#00B3E3" d="M441.428,344.313v21.34h-3.895v-21.34H441.428z"/>
	<path fill="#00B3E3" d="M464.823,354.762c0,7.155-4.338,11.24-10.227,11.24c-6.016,0-9.815-4.592-9.815-10.86
		c0-6.554,4.116-11.177,10.132-11.177C461.15,343.965,464.823,348.683,464.823,354.762z M448.897,355.078
		c0,4.338,2.185,7.789,5.921,7.789c3.768,0,5.889-3.483,5.889-7.947c0-4.021-1.994-7.82-5.889-7.82
		C450.955,347.1,448.897,350.677,448.897,355.078z"/>
	<path fill="#00B3E3" d="M468.175,365.653v-21.34h4.433l5.509,9.15c1.425,2.374,2.66,4.844,3.642,7.155h0.063
		c-0.254-2.85-0.349-5.604-0.349-8.865v-7.44h3.609v21.34h-4.021l-5.573-9.372c-1.361-2.343-2.786-4.971-3.831-7.377l-0.095,0.031
		c0.158,2.755,0.19,5.572,0.19,9.087v7.631H468.175z"/>
	<path fill="#002856" d="M489.353,362.297c1.234,0.76,3.039,1.394,4.939,1.394c2.817,0,4.464-1.488,4.464-3.642
		c0-1.994-1.14-3.134-4.021-4.242c-3.483-1.235-5.636-3.04-5.636-6.048c0-3.324,2.754-5.794,6.902-5.794
		c2.185,0,3.768,0.507,4.717,1.045l-0.76,2.248c-0.696-0.38-2.121-1.014-4.053-1.014c-2.912,0-4.021,1.742-4.021,3.198
		c0,1.995,1.298,2.977,4.242,4.116c3.609,1.393,5.446,3.135,5.446,6.269c0,3.293-2.438,6.143-7.473,6.143
		c-2.058,0-4.306-0.602-5.445-1.361L489.353,362.297z"/>
	<path fill="#002856" d="M520.252,364.957c-1.014,0.506-3.04,1.013-5.636,1.013c-6.016,0-10.544-3.799-10.544-10.797
		c0-6.681,4.528-11.208,11.146-11.208c2.659,0,4.337,0.57,5.065,0.95l-0.665,2.248c-1.045-0.507-2.532-0.887-4.306-0.887
		c-5.003,0-8.327,3.197-8.327,8.802c0,5.225,3.008,8.58,8.2,8.58c1.679,0,3.388-0.348,4.496-0.886L520.252,364.957z"/>
	<path fill="#002856" d="M526.454,344.313v8.929h10.321v-8.929h2.786v21.34h-2.786v-10.005h-10.321v10.005h-2.755v-21.34H526.454z"
		/>
	<path fill="#002856" d="M562.576,354.762c0,7.346-4.464,11.24-9.91,11.24c-5.636,0-9.594-4.37-9.594-10.829
		c0-6.775,4.211-11.208,9.91-11.208C558.809,343.965,562.576,348.43,562.576,354.762z M546.017,355.11
		c0,4.559,2.47,8.644,6.808,8.644c4.369,0,6.839-4.021,6.839-8.865c0-4.243-2.216-8.676-6.807-8.676
		C548.297,346.213,546.017,350.424,546.017,355.11z"/>
	<path fill="#002856" d="M584.387,354.762c0,7.346-4.464,11.24-9.91,11.24c-5.636,0-9.594-4.37-9.594-10.829
		c0-6.775,4.211-11.208,9.91-11.208C580.619,343.965,584.387,348.43,584.387,354.762z M567.827,355.11
		c0,4.559,2.47,8.644,6.808,8.644c4.369,0,6.839-4.021,6.839-8.865c0-4.243-2.216-8.676-6.807-8.676
		C570.107,346.213,567.827,350.424,567.827,355.11z"/>
	<path fill="#002856" d="M587.96,344.313h2.755v19.028h9.118v2.312H587.96V344.313z"/>
</g>
<path fill="#002856" d="M580.362,271.448c-5.771-6.559-13.053-9.839-21.844-9.839h-66.566c-3.433,0-5.149-2.604-5.149-7.815
	c0-5.348,1.717-8.02,5.149-8.02h91.513v-24.68H492.15c-8.776,0-15.975,3.222-21.597,9.667c-5.622,6.446-8.431,14.123-8.431,23.034
	c0,8.914,2.74,16.453,8.227,22.623c5.758,6.581,13.024,9.871,21.801,9.871h66.428c3.425,0,5.142,2.643,5.142,7.92
	c0,5.279-1.717,7.917-5.142,7.917h-18.434h-5.224h-9.662h-57.993h-11.063v24.678h11.063h57.993h9.662h5.224h18.434
	c8.774,0,16.04-3.277,21.799-9.839c5.35-6.286,8.022-13.872,8.022-22.756C588.399,285.324,585.718,277.736,580.362,271.448z"/>
<path fill="#00B3E3" d="M447.874,230.74c-5.555-6.431-12.786-9.647-21.698-9.647H356.25c-8.776,0-15.938,3.216-21.491,9.647
	c-5.553,6.434-8.33,14.094-8.33,22.989v73.072h24.68v-73.028c0-5.334,1.712-8,5.141-8h69.926c3.563,0,5.347,2.672,5.347,8.02V268.6
	h-64.988v24.68h64.988v33.521h5.518h19.162v-24.678v-48.395C456.202,244.834,453.426,237.174,447.874,230.74z"/>
</svg>
