<?xml version="1.0" encoding="utf-8" standalone="yes"?>
<!DOCTYPE svg PUBLIC "-//W3C//DTD SVG 1.1//EN" "http://www.w3.org/Graphics/SVG/1.1/DTD/svg11.dtd">
<!-- Generator: Adobe Illustrator 16.0.0, SVG Export Plug-In . SVG Version: 6.00 Build 0)  --><svg xmlns="http://www.w3.org/2000/svg" xmlns:xlink="http://www.w3.org/1999/xlink" id="Layer_1" xml:space="preserve" version="1.1" x="0px" enable-background="new 0 0 841.89 595.28" y="0px" width="841.890015px" height="335px" cursor="default" viewBox="0 0 841.89 335" style="zoom: 1;"><path fill="#002856" d="M222.440964,20.268705 c4.677,-5.415 9.853,-9.888 15.413,-13.607 H12.441961 v55.194 H119.148956 v181.211 h55.193 V61.856743 h28.131 C205.323959,46.338715 211.97496,32.394707 222.440964,20.268705  z "></path><g><path fill="#002856" d="M21.316957,287.469635 H6.800952 v-5.239 h35.333 v5.239 H27.547958 v42.485 h-6.231 V287.469635  z "></path><path fill="#002856" d="M72.150955,307.580658 H53.598957 v17.205 h20.676 v5.17 H47.437958 V282.230621 h25.774 v5.167 H53.598957 v15.083 h18.552 V307.580658  z "></path><path fill="#002856" d="M81.418961,322.448639 c2.762,1.699 6.798,3.117 11.047,3.117 c6.302,0 9.984,-3.329 9.984,-8.145 c0,-4.46 -2.55,-7.009 -8.994,-9.487 c-7.788,-2.763 -12.604,-6.799 -12.604,-13.525 c0,-7.435 6.161,-12.957 15.436,-12.957 c4.886,0 8.427,1.133 10.551,2.337 l-1.699,5.027 c-1.558,-0.85 -4.745,-2.268 -9.063,-2.268 c-6.515,0 -8.994,3.896 -8.994,7.153 c0,4.461 2.904,6.656 9.49,9.205 c8.072,3.114 12.179,7.011 12.179,14.019 c0,7.364 -5.452,13.737 -16.71,13.737 c-4.603,0 -9.63,-1.345 -12.18,-3.044 L81.418961,322.448639  z "></path><path fill="#002856" d="M126.232956,287.469635 h-14.516 v-5.239 h35.333 v5.239 h-14.587 v42.485 h-6.23 V287.469635  z "></path><path fill="#00B3E3" d="M161.559952,316.429657 l-4.107,13.525 h-8.993 l15.294,-47.725 h11.117 l15.507,47.725 h-9.346 l-4.32,-13.525 H161.559952  z M175.225952,309.844635 l-3.753,-11.754 c-0.92,-2.902 -1.699,-6.161 -2.408,-8.922 h-0.141 c-0.708,2.761 -1.416,6.089 -2.266,8.922 l-3.682,11.754 H175.225952  z "></path><path fill="#00B3E3" d="M203.399963,282.230621 v27.826 c0,9.348 3.894,13.667 9.771,13.667 c6.302,0 10.055,-4.319 10.055,-13.667 V282.230621 h8.709 v27.261 c0,14.729 -7.576,21.243 -19.047,21.243 c-11.047,0 -18.198,-6.161 -18.198,-21.172 V282.230621 H203.399963  z "></path><path fill="#00B3E3" d="M251.043961,289.522675 H237.448959 v-7.292 h36.041 v7.292 h-13.736 v40.433 h-8.709 V289.522675  z "></path><path fill="#00B3E3" d="M319.435944,305.596649 c0,16.002 -9.7,25.138 -22.871,25.138 c-13.453,0 -21.951,-10.269 -21.951,-24.288 c0,-14.656 9.206,-24.995 22.659,-24.995 C311.222961,281.45163 319.435944,292.002655 319.435944,305.596649  z M283.819946,306.304657 c0,9.701 4.886,17.419 13.242,17.419 c8.426,0 13.17,-7.79 13.17,-17.773 c0,-8.993 -4.461,-17.489 -13.17,-17.489 C288.422943,288.461639 283.819946,296.461639 283.819946,306.304657  z "></path><path fill="#00B3E3" d="M367.222961,310.482635 c-0.283,-6.161 -0.638,-13.596 -0.567,-20.038 h-0.211 c-1.559,5.805 -3.541,12.25 -5.666,18.267 l-6.938,20.678 h-6.728 l-6.373,-20.394 c-1.84,-6.089 -3.54,-12.604 -4.814,-18.551 h-0.142 c-0.212,6.231 -0.496,13.808 -0.85,20.322 l-1.062,19.188 h-8.143 l3.186,-47.725 h11.471 l6.23,19.188 c1.7,5.593 3.187,11.259 4.391,16.569 h0.212 c1.275,-5.169 2.903,-11.046 4.745,-16.64 l6.584,-19.118 h11.33 l2.762,47.725 h-8.497 L367.222961,310.482635  z "></path><path fill="#00B3E3" d="M394.61496,316.429657 l-4.107,13.525 h-8.993 l15.294,-47.725 h11.116 l15.508,47.725 h-9.347 l-4.32,-13.525 H394.61496  z M408.280945,309.844635 l-3.753,-11.754 c-0.92,-2.902 -1.699,-6.161 -2.408,-8.922 h-0.141 c-0.708,2.761 -1.417,6.089 -2.266,8.922 l-3.683,11.754 H408.280945  z "></path><path fill="#00B3E3" d="M433.480957,289.522675 h-13.595 v-7.292 h36.042 v7.292 h-13.737 v40.433 h-8.71 V289.522675  z "></path><path fill="#00B3E3" d="M470.222961,282.230621 v47.725 h-8.709 V282.230621 H470.222961  z "></path><path fill="#00B3E3" d="M522.544739,305.596649 c0,16.002 -9.701,25.138 -22.871,25.138 c-13.453,0 -21.951,-10.269 -21.951,-24.288 c0,-14.656 9.205,-24.995 22.659,-24.995 C514.329712,281.45163 522.544739,292.002655 522.544739,305.596649  z M486.927948,306.304657 c0,9.701 4.886,17.419 13.242,17.419 c8.426,0 13.169,-7.79 13.169,-17.773 c0,-8.993 -4.46,-17.489 -13.169,-17.489 C491.528961,288.461639 486.927948,296.461639 486.927948,306.304657  z "></path><path fill="#00B3E3" d="M530.039734,329.955658 V282.230621 h9.913 l12.319,20.464 c3.187,5.31 5.949,10.833 8.145,16.002 h0.142 c-0.567,-6.373 -0.779,-12.534 -0.779,-19.826 v-16.64 h8.072 v47.725 h-8.992 l-12.464,-20.96 c-3.044,-5.239 -6.23,-11.116 -8.567,-16.498 l-0.212,0.07 c0.354,6.161 0.426,12.462 0.426,20.321 v17.066 H530.039734  z "></path><path fill="#002856" d="M577.400696,322.448639 c2.761,1.699 6.797,3.117 11.047,3.117 c6.301,0 9.983,-3.329 9.983,-8.145 c0,-4.46 -2.549,-7.009 -8.992,-9.487 c-7.79,-2.763 -12.604,-6.799 -12.604,-13.525 c0,-7.435 6.159,-12.957 15.437,-12.957 c4.886,0 8.426,1.133 10.549,2.337 l-1.699,5.027 c-1.558,-0.85 -4.744,-2.268 -9.063,-2.268 c-6.513,0 -8.992,3.896 -8.992,7.153 c0,4.461 2.903,6.656 9.487,9.205 c8.072,3.114 12.181,7.011 12.181,14.019 c0,7.364 -5.453,13.737 -16.712,13.737 c-4.602,0 -9.629,-1.345 -12.178,-3.044 L577.400696,322.448639  z "></path><path fill="#002856" d="M646.5047,328.397675 c-2.267,1.132 -6.799,2.265 -12.604,2.265 c-13.453,0 -23.581,-8.495 -23.581,-24.146 c0,-14.94 10.128,-25.065 24.926,-25.065 c5.947,0 9.699,1.275 11.329,2.125 l-1.487,5.027 c-2.337,-1.134 -5.663,-1.983 -9.63,-1.983 c-11.188,0 -18.622,7.15 -18.622,19.685 c0,11.684 6.727,19.188 18.339,19.188 c3.754,0 7.576,-0.777 10.055,-1.981 L646.5047,328.397675  z "></path><path fill="#002856" d="M660.374695,282.230621 v19.968 h23.083 V282.230621 h6.23 v47.725 h-6.23 V307.580658 h-23.083 v22.375 h-6.16 V282.230621 H660.374695  z "></path><path fill="#002856" d="M741.157776,305.596649 c0,16.428 -9.982,25.138 -22.163,25.138 c-12.604,0 -21.455,-9.773 -21.455,-24.218 c0,-15.152 9.417,-25.065 22.163,-25.065 C732.73175,281.45163 741.157776,291.435638 741.157776,305.596649  z M704.124695,306.377655 c0,10.194 5.523,19.33 15.225,19.33 c9.771,0 15.294,-8.994 15.294,-19.826 c0,-9.489 -4.955,-19.402 -15.222,-19.402 C709.223694,286.478668 704.124695,295.89566 704.124695,306.377655  z "></path><path fill="#002856" d="M789.934753,305.596649 c0,16.428 -9.983,25.138 -22.163,25.138 c-12.604,0 -21.455,-9.773 -21.455,-24.218 c0,-15.152 9.417,-25.065 22.163,-25.065 C781.509705,281.45163 789.934753,291.435638 789.934753,305.596649  z M752.900696,306.377655 c0,10.194 5.523,19.33 15.225,19.33 c9.771,0 15.295,-8.994 15.295,-19.826 c0,-9.489 -4.956,-19.402 -15.223,-19.402 C758.000793,286.478668 752.900696,295.89566 752.900696,306.377655  z "></path><path fill="#002856" d="M797.926697,282.230621 h6.161 v42.555 h20.392 v5.17 h-26.553 V282.230621  z "></path></g><path fill="#002856" d="M780.934753,119.274727 c-12.907,-14.668 -29.191,-22.003 -48.852,-22.003 H583.215759 c-7.677,0 -11.517,-5.825 -11.517,-17.479 c0,-11.959 3.84,-17.936 11.517,-17.936 h204.658 v-55.194 H583.658752 c-19.628,0 -35.726,7.206 -48.299,21.618 c-12.573,14.417 -18.854,31.584 -18.854,51.512 c0,19.936 6.128,36.796 18.397,50.593 c12.877,14.717 29.128,22.075 48.756,22.075 h148.559 c7.659,0 11.498,5.91 11.498,17.712 c0,11.806 -3.839,17.706 -11.498,17.706 h-41.226 h-11.682 h-21.608 H528.006775 h-24.742 v55.189 h24.742 h129.695 h21.608 h11.682 h41.226 c19.623,0 35.871,-7.329 48.75,-22.004 c11.964,-14.058 17.941,-31.023 17.941,-50.892 C798.908752,150.307709 792.911804,133.338684 780.934753,119.274727  z "></path><path fill="#00B3E3" d="M484.639954,28.235716 c-12.423,-14.382 -28.595,-21.574 -48.526,-21.574 H279.731964 c-19.626,0 -35.643,7.192 -48.062,21.574 c-12.418,14.388 -18.628,31.52 -18.628,51.413 v163.418 h55.193 V79.748726 c0,-11.93 3.829,-17.893 11.497,-17.893 h156.381 c7.968,0 11.957,5.977 11.957,17.936 v33.114 H302.730957 v55.194 h145.339 v74.967 h12.34 h42.854 v-55.189 V79.649727 C503.264954,59.755737 497.055969,42.624718 484.639954,28.235716  z "></path></svg>